<svg xmlns="http://www.w3.org/2000/svg" width="1189.623" height="1016.991" viewBox="0 0 219.54117 302.90736"><defs><clipPath id="a"><path d="M0 242.33h283.46V0H0v242.33z"/></clipPath></defs><path d="M8.108 0l-23.39 60.262L-38.662 0h-28.73v96.396h20.496V26.882l27.145 69.514h8.946L16.33 26.882v69.514h20.65V0H8.11zM257.843 116.89l-23.388 60.262-23.382-60.26h-28.728v96.395h20.496v-69.515l27.146 69.515h8.945l27.137-69.515v69.515h20.65V116.89h-28.874zM-37.8 206.217l-9.152 23.56-9.154-23.56H-67.35v37.685h8.024v-27.176l10.622 27.176h3.503l10.62-27.176v27.176h8.08v-37.685h-11.3z" fill="#2b2b2a"/><g clip-path="url(#a)" transform="matrix(1.25 0 0 -1.25 -67.39 302.91)"><path d="M62.137 62.256c0 5.65-3.57 9.9-9.13 9.9-5.605 0-9.177-4.25-9.177-9.9 0-5.605 3.572-9.9 9.176-9.9 5.56 0 9.13 4.295 9.13 9.9m-24.905 0c0 9.085 6.646 15.594 15.776 15.594 9.085 0 15.73-6.51 15.73-15.594 0-9.085-6.645-15.594-15.73-15.594-9.13 0-15.775 6.51-15.775 15.594M78.948 47.204v24.5h-8.814v5.65H94.18v-5.65h-8.768v-24.5h-6.464zM106.518 47.204v24.5h-8.814v5.65h24.047v-5.65h-8.768v-24.5h-6.464zM26.25.543v21.742L17.752.543H14.95L6.452 22.285V.543H.034v30.15H9.03l7.32-18.85 7.324 18.85h9.04V.542H26.25zM51.74 24.273L47.04 11.3h9.4l-4.7 12.973zM60.102.543l-1.9 5.108H45.277L43.378.544H36.1L47.717 30.69h8.046L67.38.544H60.1zM67.467 15.595c0 9.31 7.006 15.593 16.092 15.593 6.598 0 10.44-3.57 12.564-7.368l-5.514-2.712c-1.266 2.44-3.978 4.385-7.05 4.385-5.516 0-9.494-4.204-9.494-9.9 0-5.695 3.978-9.898 9.493-9.898 3.072 0 5.784 1.944 7.05 4.385l5.514-2.667C94 3.66 90.158 0 83.56 0c-9.087 0-16.093 6.328-16.093 15.594M121.796 15.64c0 5.288-3.255 9.4-9.402 9.4l-5.514.002V6.19h5.47c5.965 0 9.446 4.295 9.446 9.447M100.46.54v30.15h11.89c9.446 0 16-6.013 16-15.053 0-9.132-6.554-15.098-15.956-15.098H100.46zM156.687 15.595c0 5.65-3.57 9.898-9.13 9.898-5.605 0-9.177-4.25-9.177-9.899 0-5.605 3.572-9.899 9.176-9.899 5.56 0 9.13 4.294 9.13 9.9m-24.905 0c0 9.084 6.646 15.593 15.776 15.593 9.085 0 15.73-6.51 15.73-15.594C163.286 6.51 156.64 0 147.556 0c-9.13 0-15.775 6.51-15.775 15.594M188.46.543l-14.374 19.662V.543h-6.418v30.15h6.6l13.966-18.94v18.94h6.42V.542h-6.193zM213.725 24.273l-4.7-12.972h9.4l-4.7 12.973zm8.362-23.73l-1.9 5.108H207.26L205.364.544h-7.278l11.617 30.148h8.046L229.363.544h-7.278zM232.842.543v30.15h6.463v-24.5h12.747V.543h-19.21zM276.91 15.64c0 5.288-3.255 9.4-9.402 9.4l-5.513.002V6.19h5.47c5.965 0 9.446 4.295 9.446 9.447M255.576.54v30.15h11.89c9.446 0 16-6.013 16-15.053 0-9.132-6.554-15.098-15.956-15.098h-11.935z" fill="#2b2b2a"/></g></svg>